<mxfile host="app.diagrams.net" modified="2024-04-15T14:37:09.562Z" agent="Mozilla/5.0 (Windows NT 10.0; Win64; x64) AppleWebKit/537.36 (KHTML, like Gecko) Chrome/123.0.0.0 Safari/537.36" version="24.2.5" etag="-c45P5by-mhQcVXSt7qG" type="github">
  <diagram name="Страница — 1" id="ZHj3GaNbaR7J2tkP6-b3">
    <mxGraphModel>
      <root>
        <mxCell id="0" />
        <mxCell id="1" parent="0" />
      </root>
    </mxGraphModel>
  </diagram>
</mxfile>
